<?xml version="1.0" standalone="no"?>
<!DOCTYPE svg PUBLIC "-//W3C//DTD SVG 20010904//EN"
 "http://www.w3.org/TR/2001/REC-SVG-20010904/DTD/svg10.dtd">
<svg version="1.0" xmlns="http://www.w3.org/2000/svg"
 width="512.000000pt" height="512.000000pt" viewBox="0 0 512.000000 512.000000"
 preserveAspectRatio="xMidYMid meet">

<g transform="translate(0.000000,512.000000) scale(0.100000,-0.100000)"
fill="#000000" stroke="none">
<path d="M173 5089 c-68 -26 -137 -101 -158 -172 -13 -44 -15 -263 -15 -1747
0 -1901 -5 -1762 73 -1847 82 -89 73 -87 487 -93 l365 -5 143 -57 c110 -43
153 -66 190 -100 34 -30 319 -189 956 -533 500 -269 929 -498 955 -507 102
-38 218 -10 290 69 31 35 259 448 834 1513 435 806 798 1488 808 1515 23 62
23 106 3 174 -29 98 -69 129 -388 300 l-284 153 9 31 c25 86 -3 179 -74 252
-46 46 -67 58 -172 98 -66 26 -205 79 -310 119 l-189 73 3 53 c5 99 -45 194
-133 249 -34 22 -119 42 -496 118 l-455 91 -6 40 c-17 95 -65 160 -150 203
l-62 31 -1086 -1 c-1062 0 -1087 0 -1138 -20z m2244 -130 c18 -11 41 -35 51
-52 16 -30 17 -141 17 -1737 0 -1622 -1 -1707 -18 -1738 -10 -18 -32 -42 -50
-52 -31 -20 -55 -20 -1119 -18 l-1086 3 -27 25 c-59 55 -55 -68 -55 1782 0
1682 0 1703 20 1736 11 18 34 41 52 52 32 20 53 20 1107 20 1073 0 1074 0
1108 -21z m645 -342 c251 -51 427 -91 443 -101 37 -24 65 -75 65 -117 0 -59
-648 -3301 -667 -3339 -23 -45 -76 -80 -121 -80 -26 0 -1206 229 -1250 242 -4
1 193 5 438 8 502 6 484 3 567 87 79 82 73 -58 73 1760 0 1549 1 1623 18 1623
10 0 205 -38 434 -83z m903 -532 c154 -59 291 -116 303 -128 34 -31 52 -70 52
-110 0 -35 -1185 -3147 -1216 -3195 -23 -35 -75 -62 -120 -62 -29 0 -211 65
-630 225 -324 123 -585 224 -580 225 5 0 226 -43 491 -95 265 -52 498 -95 517
-95 89 0 193 67 235 151 15 31 116 516 333 1609 171 861 313 1571 316 1578 2
7 7 11 11 9 5 -3 134 -53 288 -112z m688 -596 c144 -78 277 -156 296 -174 47
-46 54 -111 18 -181 -83 -163 -1581 -2932 -1595 -2947 -27 -30 -68 -47 -113
-47 -36 0 -130 47 -676 341 -348 188 -632 343 -630 345 1 2 216 -78 477 -178
530 -202 549 -207 652 -168 41 15 70 35 101 69 41 46 73 127 623 1565 318 833
581 1516 582 1516 2 0 121 -64 265 -141z"/>
<path d="M1283 4198 c-21 -23 -627 -922 -651 -966 -8 -13 -12 -32 -9 -42 10
-37 661 -992 684 -1003 16 -7 30 -7 47 1 15 7 127 176 331 502 246 394 306
496 303 518 -4 24 -541 894 -605 980 -29 39 -70 43 -100 10z m300 -565 c140
-225 257 -414 261 -421 8 -13 -501 -841 -516 -842 -12 0 -559 821 -556 835 2
12 549 834 555 835 1 0 116 -183 256 -407z"/>
</g>
</svg>
