<?xml version="1.0" standalone="no"?>
<!DOCTYPE svg PUBLIC "-//W3C//DTD SVG 20010904//EN"
 "http://www.w3.org/TR/2001/REC-SVG-20010904/DTD/svg10.dtd">
<svg version="1.0" xmlns="http://www.w3.org/2000/svg"
 width="512.000000pt" height="512.000000pt" viewBox="0 0 512.000000 512.000000"
 preserveAspectRatio="xMidYMid meet">

<g transform="translate(0.000000,512.000000) scale(0.100000,-0.100000)"
fill="#000000" stroke="none">
<path d="M432 5060 c-40 -11 -96 -32 -125 -47 -74 -40 -168 -138 -206 -214
-54 -111 -61 -167 -61 -534 0 -310 1 -332 20 -362 49 -81 156 -80 203 2 8 14
14 134 17 380 5 345 6 362 27 400 25 47 84 105 133 131 32 17 69 19 395 24
271 4 366 8 383 18 29 17 62 70 62 100 0 36 -28 81 -63 102 -30 19 -52 20
-372 19 -302 0 -348 -2 -413 -19z"/>
<path d="M3903 5060 c-35 -21 -63 -66 -63 -102 0 -30 33 -83 62 -100 17 -10
112 -14 383 -18 345 -5 362 -6 400 -27 47 -25 105 -84 131 -133 17 -32 19 -69
24 -395 6 -399 5 -396 72 -431 57 -29 121 -5 154 58 21 40 20 654 -1 753 -43
205 -195 357 -400 400 -54 11 -148 15 -400 15 -310 0 -332 -1 -362 -20z"/>
<path d="M903 4260 c-63 -38 -63 -35 -63 -502 0 -402 1 -425 20 -455 38 -63
35 -63 502 -63 462 0 455 0 495 59 l23 34 0 427 0 427 -23 34 c-40 60 -33 59
-497 59 -404 0 -427 -1 -457 -20z m737 -500 l0 -280 -280 0 -280 0 0 280 0
280 280 0 280 0 0 -280z"/>
<path d="M2743 4260 c-62 -38 -63 -42 -63 -430 l0 -350 -190 0 c-212 0 -235
-5 -270 -63 -19 -30 -20 -53 -20 -384 l0 -353 -130 0 c-99 0 -138 -4 -161 -15
-34 -18 -69 -70 -69 -103 0 -36 28 -81 63 -102 29 -18 51 -20 237 -20 226 0
240 3 277 59 23 34 23 36 23 387 l0 354 193 0 c212 0 227 4 264 59 l23 34 0
427 0 427 -23 34 c-40 60 -97 74 -154 39z"/>
<path d="M3303 4260 c-63 -38 -63 -35 -63 -502 0 -402 1 -425 20 -455 38 -63
35 -63 502 -63 462 0 455 0 495 59 l23 34 0 427 0 427 -23 34 c-40 60 -33 59
-497 59 -404 0 -427 -1 -457 -20z m737 -500 l0 -280 -280 0 -280 0 0 280 0
280 280 0 280 0 0 -280z"/>
<path d="M3103 2900 c-34 -21 -63 -66 -63 -100 0 -34 29 -79 63 -100 29 -18
51 -20 225 -20 l192 0 0 -192 c0 -174 2 -196 20 -225 38 -62 48 -64 376 -61
l296 3 29 32 c51 58 51 108 0 166 l-29 32 -226 3 -226 3 0 193 c0 184 -1 195
-23 227 -38 57 -47 59 -337 59 -245 0 -267 -2 -297 -20z"/>
<path d="M903 2661 c-35 -22 -63 -67 -63 -103 0 -34 35 -85 71 -103 25 -13 56
-16 166 -13 l135 3 29 32 c51 58 51 108 0 166 l-29 32 -139 3 c-123 2 -141 1
-170 -17z"/>
<path d="M2743 2260 c-62 -38 -63 -42 -63 -430 l0 -350 -190 0 c-212 0 -235
-5 -270 -63 -18 -29 -20 -51 -20 -257 0 -206 2 -228 20 -257 51 -85 160 -80
206 9 10 20 14 68 14 178 l0 150 193 0 c212 0 227 4 264 59 l23 34 0 427 0
427 -23 34 c-40 60 -97 74 -154 39z"/>
<path d="M903 1860 c-63 -38 -63 -35 -63 -502 0 -402 1 -425 20 -455 38 -63
35 -63 502 -63 462 0 455 0 495 59 l23 34 0 427 0 427 -23 34 c-40 60 -33 59
-497 59 -404 0 -427 -1 -457 -20z m737 -500 l0 -280 -280 0 -280 0 0 280 0
280 280 0 280 0 0 -280z"/>
<path d="M3303 1860 c-63 -38 -63 -35 -63 -502 0 -402 1 -425 20 -455 38 -63
35 -63 502 -63 462 0 455 0 495 59 l23 34 0 427 0 427 -23 34 c-40 60 -33 59
-497 59 -404 0 -427 -1 -457 -20z m737 -500 l0 -280 -280 0 -280 0 0 280 0
280 280 0 280 0 0 -280z"/>
<path d="M103 1261 c-62 -39 -63 -46 -63 -408 0 -365 7 -421 61 -532 42 -84
136 -178 220 -220 111 -54 167 -61 534 -61 310 0 332 1 362 20 35 21 63 66 63
102 0 30 -33 83 -62 100 -17 10 -112 14 -383 18 -326 5 -363 7 -395 24 -49 26
-108 84 -133 131 -21 38 -22 55 -27 400 -3 246 -9 366 -17 380 -34 60 -105 80
-160 46z"/>
<path d="M4903 1260 c-58 -35 -58 -34 -63 -425 -5 -345 -6 -362 -27 -400 -25
-47 -84 -105 -133 -131 -32 -17 -69 -19 -395 -24 -391 -5 -390 -5 -425 -63
-25 -41 -25 -74 0 -114 37 -62 45 -63 407 -63 365 0 421 7 532 61 84 42 178
136 220 220 54 111 61 167 61 535 0 328 0 331 -23 365 -40 60 -97 74 -154 39z"/>
</g>
</svg>
