<?xml version="1.0" standalone="no"?>
<!DOCTYPE svg PUBLIC "-//W3C//DTD SVG 20010904//EN"
 "http://www.w3.org/TR/2001/REC-SVG-20010904/DTD/svg10.dtd">
<svg version="1.0" xmlns="http://www.w3.org/2000/svg"
 width="512.000000pt" height="512.000000pt" viewBox="0 0 512.000000 512.000000"
 preserveAspectRatio="xMidYMid meet">

<g transform="translate(0.000000,512.000000) scale(0.100000,-0.100000)"
fill="#000000" stroke="none">
<path d="M438 5064 c-187 -45 -338 -198 -383 -386 -11 -49 -15 -138 -15 -401
0 -378 2 -391 65 -421 42 -20 68 -20 110 0 63 29 65 44 65 411 0 392 3 407 84
489 82 81 97 84 489 84 279 0 334 2 362 16 35 16 65 65 65 104 0 39 -30 88
-65 104 -28 14 -83 16 -377 15 -256 0 -358 -4 -400 -15z"/>
<path d="M3903 5064 c-33 -16 -63 -66 -63 -104 0 -39 30 -88 65 -104 28 -14
83 -16 362 -16 392 0 407 -3 489 -84 81 -82 84 -97 84 -489 0 -367 2 -382 65
-411 42 -20 68 -20 110 0 63 30 65 43 65 421 0 263 -4 352 -15 401 -45 191
-196 342 -387 387 -95 22 -729 21 -775 -1z"/>
<path d="M903 4264 c-62 -31 -63 -37 -63 -504 0 -469 1 -474 65 -504 50 -24
860 -24 910 0 64 30 65 35 65 504 0 469 -1 474 -65 504 -49 24 -864 23 -912 0z
m737 -504 l0 -280 -280 0 -280 0 0 280 0 280 280 0 280 0 0 -280z"/>
<path d="M2743 4264 c-61 -30 -63 -44 -63 -433 l0 -351 -191 0 c-216 0 -246
-7 -273 -65 -14 -28 -16 -85 -16 -384 l0 -351 -131 0 c-151 0 -188 -11 -213
-65 -20 -42 -20 -68 0 -110 27 -58 56 -65 284 -65 228 0 257 7 284 65 14 28
16 85 16 384 l0 351 191 0 c153 0 198 3 224 16 64 30 65 35 65 504 0 469 -1
474 -65 504 -41 20 -71 20 -112 0z"/>
<path d="M3303 4264 c-62 -31 -63 -37 -63 -504 0 -469 1 -474 65 -504 50 -24
860 -24 910 0 64 30 65 35 65 504 0 469 -1 474 -65 504 -49 24 -864 23 -912 0z
m737 -504 l0 -280 -280 0 -280 0 0 280 0 280 280 0 280 0 0 -280z"/>
<path d="M3103 2904 c-33 -16 -63 -66 -63 -104 0 -39 30 -88 65 -104 26 -13
71 -16 224 -16 l191 0 0 -191 c0 -216 7 -246 65 -273 28 -13 79 -16 315 -16
315 0 335 4 364 65 20 42 20 68 0 110 -28 59 -56 65 -293 65 l-211 0 0 191 c0
300 14 289 -362 289 -218 0 -268 -3 -295 -16z"/>
<path d="M903 2664 c-33 -16 -63 -66 -63 -104 0 -39 30 -88 65 -104 24 -12 65
-16 155 -16 141 0 179 12 204 65 20 42 20 68 0 110 -25 53 -63 65 -206 65 -91
0 -131 -5 -155 -16z"/>
<path d="M2743 2264 c-61 -30 -63 -44 -63 -433 l0 -351 -191 0 c-296 0 -289 7
-289 -320 0 -249 6 -276 65 -304 42 -20 68 -20 110 0 55 26 65 61 65 233 l0
151 191 0 c153 0 198 3 224 16 64 30 65 35 65 504 0 469 -1 474 -65 504 -41
20 -71 20 -112 0z"/>
<path d="M903 1864 c-62 -31 -63 -37 -63 -504 0 -469 1 -474 65 -504 50 -24
860 -24 910 0 64 30 65 35 65 504 0 469 -1 474 -65 504 -49 24 -864 23 -912 0z
m737 -504 l0 -280 -280 0 -280 0 0 280 0 280 280 0 280 0 0 -280z"/>
<path d="M3303 1864 c-62 -31 -63 -37 -63 -504 0 -469 1 -474 65 -504 50 -24
860 -24 910 0 64 30 65 35 65 504 0 469 -1 474 -65 504 -49 24 -864 23 -912 0z
m737 -504 l0 -280 -280 0 -280 0 0 280 0 280 280 0 280 0 0 -280z"/>
<path d="M103 1264 c-61 -30 -63 -45 -63 -421 0 -373 5 -414 61 -525 41 -80
137 -176 217 -217 111 -56 152 -61 525 -61 378 0 391 2 421 65 20 42 20 68 0
110 -29 63 -44 65 -411 65 -392 0 -407 3 -489 84 -81 82 -84 97 -84 489 0 367
-2 382 -65 411 -41 20 -71 20 -112 0z"/>
<path d="M4903 1264 c-61 -30 -63 -46 -63 -411 0 -392 -3 -407 -84 -489 -82
-81 -97 -84 -489 -84 -367 0 -382 -2 -411 -65 -20 -42 -20 -68 0 -110 30 -63
43 -65 421 -65 375 0 418 5 527 63 81 42 176 137 215 215 56 111 61 152 61
525 0 378 -2 391 -65 421 -41 20 -71 20 -112 0z"/>
</g>
</svg>
